<svg xmlns="http://www.w3.org/2000/svg" viewBox="0 0 35.989 55.654">
  <defs>
    <style>
      .cls-1 {
        fill: #f37021;
      }
    </style>
  </defs>
  <g id="Group_5147" data-name="Group 5147" transform="translate(27.843 -1092)">
    <g id="Group_5146" data-name="Group 5146" transform="translate(-27.843 1092)">
      <path id="Path_1355" data-name="Path 1355" d="M57.056,66.882h-.564V59.5A16.8,16.8,0,0,0,41.726,43.132V38.388A16.8,16.8,0,0,0,56.491,22.02V15.772h.564a1.137,1.137,0,0,0,0-2.272H23.247a1.137,1.137,0,0,0,0,2.272h.306v6.247A16.8,16.8,0,0,0,38.318,38.386v4.744A16.8,16.8,0,0,0,23.553,59.5v7.384h-.306a1.137,1.137,0,0,0,0,2.272H57.056a1.137,1.137,0,0,0,0-2.272ZM25.824,22.018V15.772H54.219v6.247a14.2,14.2,0,0,1-28.395,0ZM54.219,66.882H25.824V59.5a14.2,14.2,0,0,1,28.395,0Z" transform="translate(-22.157 -13.5)"/>
      <path id="Path_1356" data-name="Path 1356" class="cls-1" d="M38.674,50.154,28.277,58.2a1.136,1.136,0,0,0,.7,2.034H49.766a.15.15,0,0,0,.023,0,1.136,1.136,0,0,0,.545-2.132l-10.27-7.947A1.135,1.135,0,0,0,38.674,50.154Z" transform="translate(-21.386 -8.555)"/>
    </g>
  </g>
</svg>
